<svg width="126" height="139" viewBox="0 0 126 139" fill="none" xmlns="http://www.w3.org/2000/svg">
<g filter="url(#filter0_d_775_12239)">
<path d="M63 129L72.5263 112.5H53.4737L63 129Z" fill="white"/>
<circle cx="63" cy="63" r="53" fill="white"/>
<path d="M33.3863 65.3461L33.1437 68H25.2578V67.6664H25.6824C26.289 67.6664 26.5923 67.4894 26.5923 67.1356V58.264C26.5923 57.9101 26.289 57.7332 25.6824 57.7332H25.2578V57.3844H33.1589V59.917H32.8252C32.7848 59.3912 32.6837 58.9262 32.5219 58.5218C32.3602 58.1174 32.0518 57.9152 31.5968 57.9152H27.7449V62.1311H30.6111C30.9144 62.1311 31.1116 62.0098 31.2025 61.7671C31.2935 61.5245 31.3593 61.1453 31.3997 60.6297H31.7182V64.1632H31.3997C31.3593 63.6476 31.2935 63.2685 31.2025 63.0258C31.1116 62.7832 30.9144 62.6619 30.6111 62.6619H27.7449V67.4692H31.7637C32.1782 67.4692 32.4815 67.2519 32.6736 66.8171C32.8758 66.3824 33.0021 65.892 33.0527 65.3461H33.3863ZM40.7994 68.1517C40.2231 68.1517 39.7226 68.0708 39.298 67.909C38.8734 67.7371 38.4285 67.5198 37.9635 67.2569C37.7714 67.1255 37.645 67.0598 37.5844 67.0598C37.4934 67.0598 37.4479 67.1457 37.4479 67.3176V67.9848H36.9777V65.1793H37.3417C37.3923 65.6342 37.5692 66.0487 37.8725 66.4228C38.1859 66.7969 38.5751 67.0901 39.0402 67.3024C39.5053 67.5147 39.9804 67.6209 40.4657 67.6209C41.2847 67.6209 41.9368 67.4237 42.422 67.0294C42.9073 66.6351 43.15 66.0942 43.15 65.4068C43.15 64.9821 43.0236 64.6131 42.7708 64.2997C42.5181 63.9863 42.2047 63.7234 41.8306 63.5111C41.4666 63.2988 40.9662 63.0511 40.3292 62.768C39.6418 62.4647 39.0908 62.1968 38.6762 61.9643C38.2718 61.7216 37.923 61.4133 37.6298 61.0392C37.3468 60.6651 37.2052 60.2152 37.2052 59.6895C37.2052 58.8908 37.5085 58.2842 38.1151 57.8697C38.7319 57.4451 39.5508 57.2327 40.5719 57.2327C41.0774 57.2327 41.5121 57.3035 41.8761 57.4451C42.2502 57.5765 42.6242 57.7433 42.9983 57.9455C43.1702 58.0466 43.2713 58.0972 43.3016 58.0972C43.3724 58.0972 43.4078 58.0415 43.4078 57.9303V57.2934H43.8779V60.099H43.5139C43.4432 59.3912 43.155 58.8301 42.6495 58.4156C42.1541 57.991 41.5374 57.7787 40.7994 57.7787C40.0209 57.7787 39.4193 57.9404 38.9947 58.264C38.5701 58.5875 38.3578 59.0222 38.3578 59.5682C38.3578 59.9422 38.474 60.2708 38.7066 60.5539C38.9391 60.8269 39.2272 61.0594 39.571 61.2515C39.9248 61.4335 40.4 61.6509 40.9965 61.9036C41.7244 62.217 42.3058 62.5001 42.7405 62.7529C43.1752 62.9955 43.5443 63.3241 43.8476 63.7386C44.161 64.143 44.3177 64.6485 44.3177 65.2551C44.3177 65.8516 44.166 66.3672 43.8627 66.802C43.5594 67.2367 43.1399 67.5703 42.604 67.8029C42.0682 68.0354 41.4666 68.1517 40.7994 68.1517ZM47.7371 67.6664H48.1617C48.465 67.6664 48.6874 67.6259 48.829 67.545C48.9806 67.4541 49.0564 67.3176 49.0564 67.1356V58.264C49.0564 58.082 48.9806 57.9506 48.829 57.8697C48.6874 57.7787 48.465 57.7332 48.1617 57.7332H47.7371V57.3844H52.7112C54.8344 57.3844 55.8959 58.4561 55.8959 60.5994C55.8959 61.6003 55.6432 62.3889 55.1377 62.9652C54.6322 63.5313 53.8234 63.8144 52.7112 63.8144H50.209V67.1356C50.209 67.4894 50.5072 67.6664 51.1037 67.6664H51.5435V68H47.7371V67.6664ZM52.5293 63.2836C53.2976 63.2836 53.8638 63.046 54.2278 62.5709C54.5917 62.0957 54.7737 61.4385 54.7737 60.5994C54.7737 59.7502 54.5917 59.093 54.2278 58.6279C53.8638 58.1528 53.2976 57.9152 52.5293 57.9152H50.209V63.2836H52.5293ZM59.0356 67.6664H59.4754C60.0719 67.6664 60.3701 67.4894 60.3701 67.1356V58.264C60.3701 57.9101 60.0719 57.7332 59.4754 57.7332H59.0356V57.3844H62.842V57.7332H62.4174C62.1141 57.7332 61.8866 57.7787 61.735 57.8697C61.5934 57.9506 61.5227 58.082 61.5227 58.264V67.1356C61.5227 67.3176 61.5934 67.4541 61.735 67.545C61.8866 67.6259 62.1141 67.6664 62.4174 67.6664H62.842V68H59.0356V67.6664ZM73.1944 65.3613C73.3359 65.8668 73.4674 66.2712 73.5887 66.5745C73.71 66.8778 73.8819 67.1356 74.1043 67.3479C74.3368 67.5602 74.63 67.6664 74.9839 67.6664V68H73.9678C73.523 68 73.1641 67.8686 72.8911 67.6057C72.6282 67.3327 72.426 66.9435 72.2845 66.438L72.1025 65.7252C71.9711 65.1793 71.8396 64.7344 71.7082 64.3907C71.5869 64.0469 71.415 63.774 71.1926 63.5718H70.9651H68.5387V67.1356C68.5387 67.4894 68.8369 67.6664 69.4334 67.6664H69.8732V68H66.0668V67.6664H66.4914C66.7947 67.6664 67.0171 67.6259 67.1587 67.545C67.3103 67.4541 67.3861 67.3176 67.3861 67.1356V58.264C67.3861 58.082 67.3103 57.9506 67.1587 57.8697C67.0171 57.7787 66.7947 57.7332 66.4914 57.7332H66.0668V57.3844H70.9651C72.0974 57.3844 72.9164 57.6523 73.4219 58.1881C73.9274 58.724 74.1801 59.4873 74.1801 60.4781C74.1801 62.126 73.4977 63.1168 72.1328 63.4505C72.4159 63.6021 72.6232 63.8296 72.7546 64.1329C72.8961 64.4261 73.0427 64.8355 73.1944 65.3613ZM70.7831 63.041C72.2996 63.041 73.0579 62.1867 73.0579 60.4781C73.0579 58.7695 72.2996 57.9152 70.7831 57.9152H68.5387V63.041H70.7831ZM86.3489 65.3461L86.1062 68H78.2203V67.6664H78.645C79.2516 67.6664 79.5549 67.4894 79.5549 67.1356V58.264C79.5549 57.9101 79.2516 57.7332 78.645 57.7332H78.2203V57.3844H86.1214V59.917H85.7877C85.7473 59.3912 85.6462 58.9262 85.4844 58.5218C85.3227 58.1174 85.0143 57.9152 84.5594 57.9152H80.7074V62.1311H83.5736C83.8769 62.1311 84.0741 62.0098 84.1651 61.7671C84.2561 61.5245 84.3218 61.1453 84.3622 60.6297H84.6807V64.1632H84.3622C84.3218 63.6476 84.2561 63.2685 84.1651 63.0258C84.0741 62.7832 83.8769 62.6619 83.5736 62.6619H80.7074V67.4692H84.7262C85.1407 67.4692 85.444 67.2519 85.6361 66.8171C85.8383 66.3824 85.9647 65.892 86.0152 65.3461H86.3489ZM94.9599 68.1517C93.3423 68.1517 92.0988 67.6765 91.2293 66.7261C90.3598 65.7758 89.9251 64.4311 89.9251 62.6922C89.9251 60.9634 90.3598 59.6238 91.2293 58.6734C92.0988 57.713 93.3423 57.2327 94.9599 57.2327C96.5675 57.2327 97.8059 57.713 98.6754 58.6734C99.5449 59.6238 99.9796 60.9634 99.9796 62.6922C99.9796 64.4311 99.5449 65.7758 98.6754 66.7261C97.8059 67.6765 96.5675 68.1517 94.9599 68.1517ZM94.9448 67.6057C96.2288 67.6057 97.1943 67.1659 97.8413 66.2863C98.4985 65.4068 98.8271 64.2087 98.8271 62.6922C98.8271 61.1757 98.4985 59.9776 97.8413 59.0981C97.1943 58.2185 96.2288 57.7787 94.9448 57.7787C93.681 57.7787 92.7206 58.2185 92.0634 59.0981C91.4062 59.9776 91.0777 61.1757 91.0777 62.6922C91.0777 64.2087 91.4062 65.4068 92.0634 66.2863C92.7206 67.1659 93.681 67.6057 94.9448 67.6057Z" fill="#4B3D32"/>
</g>
<defs>
<filter id="filter0_d_775_12239" x="0" y="0" width="126" height="139" filterUnits="userSpaceOnUse" color-interpolation-filters="sRGB">
<feFlood flood-opacity="0" result="BackgroundImageFix"/>
<feColorMatrix in="SourceAlpha" type="matrix" values="0 0 0 0 0 0 0 0 0 0 0 0 0 0 0 0 0 0 127 0" result="hardAlpha"/>
<feOffset/>
<feGaussianBlur stdDeviation="5"/>
<feComposite in2="hardAlpha" operator="out"/>
<feColorMatrix type="matrix" values="0 0 0 0 0 0 0 0 0 0 0 0 0 0 0 0 0 0 0.16 0"/>
<feBlend mode="normal" in2="BackgroundImageFix" result="effect1_dropShadow_775_12239"/>
<feBlend mode="normal" in="SourceGraphic" in2="effect1_dropShadow_775_12239" result="shape"/>
</filter>
</defs>
</svg>
