<svg width="22" height="24" viewBox="0 0 22 24" fill="none" xmlns="http://www.w3.org/2000/svg">
<path d="M5.06759 6.00002C4.48181 6.0536 4.01139 6.50775 4 7.05917C4.12797 10.7965 5.34281 13.8058 7.55036 15.866C9.7579 17.9263 12.9269 19.0065 16.8607 19C17.5062 19.0028 17.9511 18.4715 17.9631 17.936C17.9696 17.0529 17.9766 16.1677 17.9829 15.2857C17.9829 14.6695 17.4096 14.2696 16.8806 14.2652C16.0658 14.2683 14.9297 13.9799 14.0105 13.7574C13.8536 13.7205 13.6785 13.7678 13.5636 13.8783L12.0491 15.3099C10.2247 14.2428 9.389 13.4565 8.26539 11.7359L9.76995 10.3188C9.89172 10.2043 9.94306 10.0235 9.89905 9.86423C9.65131 8.96097 9.24293 7.78408 9.30815 6.95762C9.2436 6.3124 8.61501 5.99656 8.11643 6.00003C7.05517 6.00001 5.97611 6.00004 5.06759 6.00002H5.06759ZM5.07255 6.92859C6.09327 6.92859 7.11699 6.92859 8.13628 6.92859C8.29022 6.93144 8.29022 6.93144 8.36469 7.06884C8.33639 8.06502 8.67209 9.07141 8.90097 9.84488L7.32193 11.3441C7.16811 11.4896 7.13551 11.7415 7.24745 11.9197C8.60566 14.064 9.6129 15.0155 11.8753 16.3013C12.0533 16.4021 12.2984 16.373 12.4464 16.2336L14.0403 14.7199C14.9048 14.9326 15.9421 15.1975 16.8855 15.1938C16.9539 15.2063 17.0213 15.3007 17.0295 15.3099L17.0097 17.9312C16.9765 18.0067 17.0296 18.0742 16.8309 18.0714C13.0909 18.0714 10.2048 17.0549 8.21076 15.1938C6.21126 13.3277 5.07527 10.5853 4.95337 7.02531C4.95338 6.93144 4.95338 6.93144 5.07255 6.92859Z" fill="#4B3D32"/>
</svg>
