<svg width="40" height="40" viewBox="0 0 40 40" fill="none" xmlns="http://www.w3.org/2000/svg">
<g clip-path="url(#clip0_101_604)">
<path d="M11.8304 14.7088C12.9726 14.6592 14.1038 14.9495 15.0809 15.543C16.0581 16.1364 16.8372 17.0064 17.3199 18.0427C17.8025 19.0791 17.967 20.2353 17.7924 21.3651C17.6178 22.495 17.112 23.5476 16.339 24.39C15.5661 25.2323 14.5606 25.8264 13.4499 26.0972C12.3392 26.368 11.1732 26.3033 10.0993 25.9113C9.02534 25.5193 8.09182 24.8176 7.41679 23.8949C6.74176 22.9722 6.35556 21.8701 6.30703 20.7278C6.24903 19.1992 6.79667 17.7095 7.83093 16.5825C8.86519 15.4554 10.3025 14.7821 11.8304 14.7088ZM11.7845 13.6278C10.4287 13.6854 9.12047 14.1438 8.02518 14.9449C6.92989 15.746 6.09676 16.8539 5.63115 18.1286C5.16553 19.4032 5.08833 20.7872 5.40932 22.1057C5.73031 23.4242 6.43507 24.6179 7.43448 25.5359C8.43388 26.4538 9.68305 27.0548 11.024 27.2628C12.365 27.4708 13.7375 27.2765 14.968 26.7045C16.1986 26.1324 17.2318 25.2083 17.9372 24.049C18.6425 22.8897 18.9882 21.5473 18.9306 20.1916C18.8534 18.3735 18.0571 16.6606 16.717 15.4297C15.3768 14.1987 13.6025 13.5506 11.7845 13.6278Z" fill="#4B3D32" stroke="#4B3D32" stroke-width="0.2"/>
<path d="M18.2542 25.4341L22.1124 29.0009C22.3266 29.1989 22.3397 29.5331 22.1416 29.7472C21.9436 29.9613 21.6096 29.9743 21.3955 29.7764L17.537 26.2094L18.2542 25.4341Z" fill="#4B3D32" stroke="#4B3D32" stroke-width="0.2"/>
</g>
<defs>
<clipPath id="clip0_101_604">
<rect width="19" height="19" fill="white" transform="translate(3.10535 12.4117) rotate(-2.43267)"/>
</clipPath>
</defs>
</svg>
