<svg width="20" height="20" viewBox="0 0 18 19" fill="none" xmlns="http://www.w3.org/2000/svg">
<path d="M13.1323 6.01254V4.27104C13.1323 3.72837 13.0255 3.19102 12.8178 2.68965C12.6101 2.18829 12.3057 1.73274 11.922 1.34902C11.5383 0.96529 11.0827 0.660901 10.5814 0.45323C10.08 0.245559 9.54264 0.138672 8.99997 0.138672C8.4573 0.138672 7.91995 0.245559 7.41858 0.45323C6.91722 0.660901 6.46167 0.96529 6.07795 1.34902C5.69422 1.73274 5.38983 2.18829 5.18216 2.68965C4.97449 3.19102 4.8676 3.72837 4.8676 4.27104V8.40342C4.8676 8.55998 4.9298 8.71014 5.04051 8.82085C5.15122 8.93156 5.30137 8.99375 5.45794 8.99375C5.61451 8.99375 5.76466 8.93156 5.87537 8.82085C5.98608 8.71014 6.04828 8.55998 6.04828 8.40342V7.19322H10.771V6.01254H6.04828V4.27104C6.04828 3.48821 6.35926 2.73743 6.91281 2.18388C7.46636 1.63033 8.21714 1.31935 8.99997 1.31935C9.78281 1.31935 10.5336 1.63033 11.0871 2.18388C11.6407 2.73743 11.9517 3.48821 11.9517 4.27104V8.3739C11.9517 8.53047 12.0139 8.68062 12.1246 8.79133C12.2353 8.90204 12.3854 8.96424 12.542 8.96424C12.6986 8.96424 12.8487 8.90204 12.9594 8.79133C13.0702 8.68062 13.1323 8.53047 13.1323 8.3739V7.19322H16.084V17.8193H1.91591V7.19322H3.68692V6.01254H0.735229V17.8725C0.735229 18.1715 0.854024 18.4583 1.06548 18.6697C1.27694 18.8812 1.56373 19 1.86278 19H16.1372C16.4362 19 16.723 18.8812 16.9345 18.6697C17.1459 18.4583 17.2647 18.1715 17.2647 17.8725V6.01254H13.1323Z" fill="#4B3D32"/>
</svg>
