<svg width="20" height="20" viewBox="0 0 20 20" fill="none" xmlns="http://www.w3.org/2000/svg">
<g clip-path="url(#clip0_302_749)">
<path d="M8.72507 3.10341C9.86723 3.05384 10.9984 3.34414 11.9756 3.93759C12.9527 4.53104 13.7319 5.40096 14.2145 6.43733C14.6972 7.47369 14.8616 8.62991 14.687 9.75974C14.5124 10.8896 14.0067 11.9422 13.2337 12.7845C12.4607 13.6269 11.4553 14.221 10.3446 14.4918C9.2339 14.7626 8.06783 14.6979 6.99391 14.3059C5.91999 13.9139 4.98647 13.2121 4.31144 12.2895C3.63642 11.3668 3.25021 10.2646 3.20169 9.12244C3.14368 7.59384 3.69132 6.10412 4.72558 4.97705C5.75984 3.84998 7.19713 3.17666 8.72507 3.10341V3.10341ZM8.67915 2.02244C7.32337 2.08004 6.01512 2.53838 4.91984 3.3395C3.82455 4.14062 2.99142 5.24854 2.5258 6.52315C2.06018 7.79777 1.98298 9.18183 2.30397 10.5003C2.62496 11.8188 3.32972 13.0125 4.32913 13.9305C5.32854 14.8484 6.57771 15.4494 7.91867 15.6574C9.25963 15.8654 10.6322 15.6711 11.8627 15.099C13.0932 14.527 14.1265 13.6029 14.8318 12.4436C15.5372 11.2843 15.8829 9.94192 15.8253 8.58614C15.7481 6.7681 14.9518 5.05521 13.6116 3.82427C12.2714 2.59334 10.4972 1.9452 8.67915 2.02244Z" fill="white" stroke="white" stroke-width="0.2"/>
<path d="M15.1487 13.8288L19.0069 17.3956C19.2211 17.5936 19.2341 17.9278 19.036 18.1419C18.838 18.356 18.504 18.369 18.2899 18.1711L14.4315 14.6041L15.1487 13.8288Z" fill="white" stroke="white" stroke-width="0.2"/>
</g>
<defs>
<clipPath id="clip0_302_749">
<rect width="19" height="19" fill="white" transform="translate(0 0.806396) rotate(-2.43267)"/>
</clipPath>
</defs>
</svg>
