<svg width="20" height="20" viewBox="0 0 18 19" fill="none" xmlns="http://www.w3.org/2000/svg">
<path d="M13.1322 6.01254V4.27104C13.1322 3.72837 13.0253 3.19102 12.8177 2.68965C12.61 2.18829 12.3056 1.73274 11.9219 1.34902C11.5382 0.96529 11.0826 0.660901 10.5812 0.45323C10.0799 0.245559 9.54252 0.138672 8.99985 0.138672C8.45718 0.138672 7.91982 0.245559 7.41846 0.45323C6.9171 0.660901 6.46155 0.96529 6.07782 1.34902C5.6941 1.73274 5.38971 2.18829 5.18204 2.68965C4.97437 3.19102 4.86748 3.72837 4.86748 4.27104V8.40342C4.86748 8.55998 4.92968 8.71014 5.04039 8.82085C5.1511 8.93156 5.30125 8.99375 5.45782 8.99375C5.61439 8.99375 5.76454 8.93156 5.87525 8.82085C5.98596 8.71014 6.04816 8.55998 6.04816 8.40342V7.19322H10.7709V6.01254H6.04816V4.27104C6.04816 3.48821 6.35914 2.73743 6.91269 2.18388C7.46624 1.63033 8.21701 1.31935 8.99985 1.31935C9.78269 1.31935 10.5335 1.63033 11.087 2.18388C11.6406 2.73743 11.9515 3.48821 11.9515 4.27104V8.3739C11.9515 8.53047 12.0137 8.68062 12.1245 8.79133C12.2352 8.90204 12.3853 8.96424 12.5419 8.96424C12.6985 8.96424 12.8486 8.90204 12.9593 8.79133C13.07 8.68062 13.1322 8.53047 13.1322 8.3739V7.19322H16.0839V17.8193H1.91579V7.19322H3.6868V6.01254H0.735107V17.8725C0.735107 18.1715 0.853902 18.4583 1.06536 18.6697C1.27681 18.8812 1.56361 19 1.86265 19H16.137C16.4361 19 16.7229 18.8812 16.9343 18.6697C17.1458 18.4583 17.2646 18.1715 17.2646 17.8725V6.01254H13.1322Z" fill="white"/>
</svg>
