<svg width="20" height="21" viewBox="0 0 20 21" fill="none" xmlns="http://www.w3.org/2000/svg">
<g clip-path="url(#clip0_101_509)">
<path d="M8.8303 3.70881C9.97246 3.65925 11.1037 3.94955 12.0808 4.543C13.0579 5.13644 13.8371 6.00637 14.3198 7.04273C14.8024 8.07909 14.9668 9.23532 14.7922 10.3651C14.6176 11.495 14.1119 12.5476 13.3389 13.39C12.5659 14.2323 11.5605 14.8264 10.4498 15.0972C9.33912 15.368 8.17306 15.3033 7.09914 14.9113C6.02522 14.5193 5.0917 13.8176 4.41667 12.8949C3.74164 11.9722 3.35544 10.8701 3.30691 9.72785C3.24891 8.19925 3.79655 6.70953 4.83081 5.58246C5.86506 4.45539 7.30235 3.78206 8.8303 3.70881ZM8.78437 2.62785C7.4286 2.68544 6.12035 3.14378 5.02506 3.9449C3.92977 4.74602 3.09664 5.85394 2.63102 7.12856C2.1654 8.40318 2.08821 9.78724 2.4092 11.1057C2.73019 12.4242 3.43495 13.6179 4.43436 14.5359C5.43376 15.4538 6.68293 16.0548 8.02389 16.2628C9.36486 16.4708 10.7374 16.2765 11.9679 15.7045C13.1984 15.1324 14.2317 14.2083 14.9371 13.049C15.6424 11.8897 15.9881 10.5473 15.9305 9.19155C15.8533 7.37351 15.057 5.66062 13.7168 4.42968C12.3767 3.19875 10.6024 2.55061 8.78437 2.62785Z" fill="white" stroke="white" stroke-width="0.2"/>
<path d="M15.2541 14.4341L19.1123 18.0009C19.3265 18.1989 19.3396 18.5331 19.1415 18.7472C18.9435 18.9613 18.6095 18.9743 18.3954 18.7764L14.537 15.2094L15.2541 14.4341Z" fill="white" stroke="white" stroke-width="0.2"/>
</g>
<defs>
<clipPath id="clip0_101_509">
<rect width="19" height="19" fill="white" transform="translate(0.105225 1.41174) rotate(-2.43267)"/>
</clipPath>
</defs>
</svg>
