<svg width="31" height="34" viewBox="0 0 31 34" fill="none" xmlns="http://www.w3.org/2000/svg">
<path d="M23.6318 8.00132C23.4125 8.01094 23.199 8.07196 23.0065 8.14902C22.8159 8.22557 21.7189 8.69363 20.0988 9.38601C18.4788 10.0784 16.3729 10.98 14.2853 11.874C10.1101 13.6621 6.00736 15.4215 6.00736 15.4215L6.03726 15.41C6.03726 15.41 5.78964 15.4928 5.53858 15.6676C5.41305 15.7551 5.27801 15.8679 5.16743 16.0325C5.05685 16.197 4.97602 16.4302 5.00648 16.6769C5.11348 17.5433 6.01176 17.7891 6.01176 17.7891L6.01528 17.7908L10.0241 19.1623C10.1263 19.5031 11.24 23.2187 11.4849 24.0056C11.6202 24.4407 11.7469 24.6916 11.879 24.8628C11.9451 24.9485 12.0143 25.0148 12.0909 25.0633C12.1213 25.0825 12.1533 25.097 12.185 25.1098C12.1857 25.1101 12.1861 25.1095 12.1868 25.1098C12.1907 25.1116 12.1943 25.1117 12.1982 25.1134L12.1877 25.1107C12.195 25.1137 12.2023 25.1187 12.2096 25.1213C12.2239 25.1263 12.2327 25.1261 12.251 25.1301C12.7101 25.2903 13.09 24.9929 13.09 24.9929L13.1059 24.9806L15.5685 22.6974L19.565 25.8123L19.6151 25.8352C20.3146 26.1456 20.9473 25.9724 21.2976 25.6875C21.6479 25.4025 21.7857 25.0351 21.7857 25.0351L21.8007 24.9964L24.7373 9.69635C24.8125 9.35405 24.8232 9.05818 24.7523 8.79081C24.6814 8.52345 24.5093 8.29103 24.2932 8.16221C24.0771 8.03339 23.8511 7.99171 23.6318 8.00132ZM23.6556 8.91653C23.7446 8.91241 23.8106 8.92259 23.8315 8.935C23.8523 8.9474 23.8616 8.94577 23.8816 9.02115C23.9016 9.09654 23.9124 9.25532 23.8578 9.50381L23.8561 9.50909L20.9361 24.7204C20.9292 24.7357 20.8684 24.8764 20.7294 24.9894C20.5877 25.1047 20.4301 25.1947 20.0118 25.0193L15.6415 21.6125L15.5184 21.5158L15.5157 21.5185L14.2088 20.5382L21.5535 11.9004C21.61 11.8342 21.646 11.7531 21.6573 11.6668C21.6686 11.5806 21.6547 11.4929 21.6172 11.4145C21.5797 11.336 21.5202 11.27 21.446 11.2246C21.3718 11.1791 21.2861 11.1561 21.1991 11.1584C21.1141 11.1606 21.0315 11.1868 20.9607 11.234L10.3328 18.3166L6.31783 16.9424C6.31783 16.9424 5.91914 16.7206 5.90006 16.5661C5.899 16.5576 5.89429 16.5653 5.91501 16.5345C5.93573 16.5037 5.9878 16.4516 6.05309 16.4061C6.18367 16.3152 6.33278 16.2602 6.33278 16.2602L6.34773 16.2549L6.36268 16.2488C6.36268 16.2488 10.4657 14.4893 14.6406 12.7013C16.7281 11.8073 18.8336 10.9064 20.4533 10.2142C22.0725 9.52215 23.2425 9.02404 23.3416 8.98423C23.4544 8.93908 23.5665 8.92066 23.6556 8.91653ZM18.7848 13.766L13.2149 20.3166L13.2123 20.3193C13.2036 20.3298 13.1954 20.3406 13.1877 20.3518C13.1788 20.364 13.1706 20.3766 13.163 20.3896C13.1317 20.4427 13.1117 20.5017 13.1041 20.5628C13.1041 20.564 13.1041 20.5652 13.1041 20.5663L12.3785 23.828C12.3664 23.7928 12.358 23.7799 12.3451 23.7384V23.7375C12.1146 22.9972 11.0639 19.4931 10.9185 19.0085L18.7848 13.766ZM13.8438 21.3901L14.8447 22.1409L13.3741 23.5036L13.8438 21.3901Z" fill="#4B3D32"/>
</svg>
