<svg  class="hidden">
  <symbol  xmlns="http://www.w3.org/2000/svg" viewBox="0 0 40 40" id="header-shop">
    <path d="M34.1323 17.0125V15.271C34.1323 14.7284 34.0255 14.191 33.8178 13.6897C33.6101 13.1883 33.3057 12.7327 32.922 12.349C32.5383 11.9653 32.0827 11.6609 31.5814 11.4532C31.08 11.2456 30.5426 11.1387 30 11.1387C29.4573 11.1387 28.9199 11.2456 28.4186 11.4532C27.9172 11.6609 27.4617 11.9653 27.0779 12.349C26.6942 12.7327 26.3898 13.1883 26.1822 13.6897C25.9745 14.191 25.8676 14.7284 25.8676 15.271V19.4034C25.8676 19.56 25.9298 19.7101 26.0405 19.8208C26.1512 19.9316 26.3014 19.9938 26.4579 19.9938C26.6145 19.9938 26.7647 19.9316 26.8754 19.8208C26.9861 19.7101 27.0483 19.56 27.0483 19.4034V18.1932H31.771V17.0125H27.0483V15.271C27.0483 14.4882 27.3593 13.7374 27.9128 13.1839C28.4664 12.6303 29.2171 12.3193 30 12.3193C30.7828 12.3193 31.5336 12.6303 32.0871 13.1839C32.6407 13.7374 32.9517 14.4882 32.9517 15.271V19.3739C32.9517 19.5305 33.0139 19.6806 33.1246 19.7913C33.2353 19.902 33.3854 19.9642 33.542 19.9642C33.6986 19.9642 33.8487 19.902 33.9594 19.7913C34.0702 19.6806 34.1323 19.5305 34.1323 19.3739V18.1932H37.084V28.8193H22.9159V18.1932H24.6869V17.0125H21.7352V28.8725C21.7352 29.1715 21.854 29.4583 22.0655 29.6697C22.2769 29.8812 22.5637 30 22.8628 30H37.1372C37.4362 30 37.723 29.8812 37.9345 29.6697C38.1459 29.4583 38.2647 29.1715 38.2647 28.8725V17.0125H34.1323Z"></path>
  </symbol>
</svg>