<svg width="121" height="19" viewBox="0 0 121 19" fill="none" xmlns="http://www.w3.org/2000/svg">
<path d="M13.4623 13.7046L13.0728 17.9648H0.413849V17.4293H1.09548C2.06925 17.4293 2.55613 17.1453 2.55613 16.5772V2.33595C2.55613 1.76792 2.06925 1.48391 1.09548 1.48391H0.413849V0.923996H13.0971V4.98945H12.5615C12.4966 4.14553 12.3343 3.39898 12.0747 2.7498C11.815 2.10063 11.32 1.77604 10.5897 1.77604H4.40628V8.54369H9.0073C9.49419 8.54369 9.81066 8.34894 9.95672 7.95943C10.1028 7.56993 10.2083 6.96132 10.2732 6.13363H10.7844V11.8058H10.2732C10.2083 10.9781 10.1028 10.3695 9.95672 9.97999C9.81066 9.59048 9.49419 9.39573 9.0073 9.39573H4.40628V17.1128H10.8575C11.5229 17.1128 12.0097 16.7639 12.3181 16.066C12.6427 15.3681 12.8456 14.581 12.9267 13.7046H13.4623ZM25.3621 18.2083C24.4371 18.2083 23.6337 18.0784 22.9521 17.8188C22.2704 17.5429 21.5564 17.1939 20.8098 16.772C20.5014 16.561 20.2986 16.4555 20.2012 16.4555C20.0551 16.4555 19.9821 16.5935 19.9821 16.8694V17.9405H19.2274V13.4368H19.8117C19.8928 14.1672 20.1769 14.8326 20.6637 15.4331C21.1668 16.0335 21.7917 16.5042 22.5382 16.845C23.2848 17.1858 24.0476 17.3562 24.8266 17.3562C26.1412 17.3562 27.1879 17.0398 27.967 16.4068C28.746 15.7739 29.1355 14.9056 29.1355 13.802C29.1355 13.1204 28.9326 12.528 28.5269 12.0249C28.1211 11.5218 27.618 11.0998 27.0175 10.759C26.4333 10.4182 25.6299 10.0206 24.6075 9.56614C23.5039 9.07926 22.6194 8.64918 21.954 8.2759C21.3048 7.8864 20.7449 7.3914 20.2742 6.79092C19.8198 6.19043 19.5926 5.46822 19.5926 4.62429C19.5926 3.34217 20.0795 2.36841 21.0532 1.70301C22.0432 1.02137 23.3578 0.680556 24.997 0.680556C25.8085 0.680556 26.5063 0.794161 27.0906 1.02137C27.6911 1.23235 28.2915 1.50014 28.892 1.82473C29.1679 1.98702 29.3302 2.06817 29.3789 2.06817C29.4925 2.06817 29.5493 1.97891 29.5493 1.80038V0.777932H30.304V5.28158H29.7197C29.6061 4.14553 29.1436 3.2448 28.3321 2.57939C27.5369 1.89776 26.5469 1.55694 25.3621 1.55694C24.1125 1.55694 23.1468 1.81661 22.4652 2.33595C21.7836 2.85529 21.4427 3.55316 21.4427 4.42954C21.4427 5.03003 21.6294 5.55748 22.0027 6.01191C22.3759 6.4501 22.8385 6.82338 23.3903 7.13173C23.9583 7.42386 24.7211 7.77279 25.6786 8.17853C26.8471 8.68164 27.7803 9.13606 28.4782 9.5418C29.176 9.9313 29.7684 10.4588 30.2553 11.1242C30.7584 11.7733 31.01 12.5848 31.01 13.5586C31.01 14.5161 30.7665 15.3438 30.2796 16.0417C29.7928 16.7395 29.1192 17.2751 28.2591 17.6484C27.3989 18.0216 26.4333 18.2083 25.3621 18.2083ZM36.499 17.4293H37.1806C37.6675 17.4293 38.0245 17.3644 38.2518 17.2345C38.4952 17.0885 38.6169 16.8694 38.6169 16.5772V2.33595C38.6169 2.04382 38.4952 1.83284 38.2518 1.70301C38.0245 1.55694 37.6675 1.48391 37.1806 1.48391H36.499V0.923996H44.4838C47.892 0.923996 49.5961 2.64431 49.5961 6.08494C49.5961 7.69165 49.1904 8.95754 48.3789 9.88261C47.5674 10.7915 46.2691 11.2459 44.4838 11.2459H40.4671V16.5772C40.4671 17.1453 40.9458 17.4293 41.9034 17.4293H42.6093V17.9648H36.499V17.4293ZM44.1917 10.3938C45.4251 10.3938 46.334 10.0124 46.9182 9.24967C47.5025 8.48689 47.7946 7.43198 47.7946 6.08494C47.7946 4.72167 47.5025 3.66676 46.9182 2.92021C46.334 2.15743 45.4251 1.77604 44.1917 1.77604H40.4671V10.3938H44.1917ZM54.6361 17.4293H55.3421C56.2996 17.4293 56.7784 17.1453 56.7784 16.5772V2.33595C56.7784 1.76792 56.2996 1.48391 55.3421 1.48391H54.6361V0.923996H60.7464V1.48391H60.0648C59.5779 1.48391 59.2128 1.55694 58.9693 1.70301C58.7421 1.83284 58.6285 2.04382 58.6285 2.33595V16.5772C58.6285 16.8694 58.7421 17.0885 58.9693 17.2345C59.2128 17.3644 59.5779 17.4293 60.0648 17.4293H60.7464V17.9648H54.6361V17.4293ZM77.3647 13.729C77.5919 14.5404 77.8029 15.1896 77.9976 15.6765C78.1924 16.1634 78.4683 16.5772 78.8253 16.918C79.1986 17.2589 79.6693 17.4293 80.2373 17.4293V17.9648H78.6062C77.8921 17.9648 77.316 17.7539 76.8778 17.3319C76.4558 16.8937 76.1313 16.2689 75.904 15.4574L75.6119 14.3132C75.4009 13.4368 75.1899 12.7228 74.979 12.171C74.7842 11.6192 74.5083 11.181 74.1513 10.8564H73.7861H69.8911V16.5772C69.8911 17.1453 70.3698 17.4293 71.3274 17.4293H72.0333V17.9648H65.923V17.4293H66.6046C67.0915 17.4293 67.4485 17.3644 67.6757 17.2345C67.9192 17.0885 68.0409 16.8694 68.0409 16.5772V2.33595C68.0409 2.04382 67.9192 1.83284 67.6757 1.70301C67.4485 1.55694 67.0915 1.48391 66.6046 1.48391H65.923V0.923996H73.7861C75.6038 0.923996 76.9184 1.35407 77.7298 2.21423C78.5413 3.07439 78.947 4.29971 78.947 5.89019C78.947 8.53558 77.8516 10.1261 75.6606 10.6616C76.115 10.9051 76.4477 11.2702 76.6587 11.7571C76.8859 12.2278 77.1212 12.885 77.3647 13.729ZM73.494 10.0043C75.9284 10.0043 77.1456 8.63295 77.1456 5.89019C77.1456 3.14742 75.9284 1.77604 73.494 1.77604H69.8911V10.0043H73.494ZM98.4811 13.7046L98.0916 17.9648H85.4326V17.4293H86.1143C87.088 17.4293 87.5749 17.1453 87.5749 16.5772V2.33595C87.5749 1.76792 87.088 1.48391 86.1143 1.48391H85.4326V0.923996H98.1159V4.98945H97.5803C97.5154 4.14553 97.3531 3.39898 97.0935 2.7498C96.8338 2.10063 96.3388 1.77604 95.6085 1.77604H89.4251V8.54369H94.0261C94.513 8.54369 94.8295 8.34894 94.9755 7.95943C95.1216 7.56993 95.2271 6.96132 95.292 6.13363H95.8032V11.8058H95.292C95.2271 10.9781 95.1216 10.3695 94.9755 9.97999C94.8295 9.59048 94.513 9.39573 94.0261 9.39573H89.4251V17.1128H95.8763C96.5417 17.1128 97.0285 16.7639 97.3369 16.066C97.6615 15.3681 97.8644 14.581 97.9455 13.7046H98.4811ZM112.304 18.2083C109.707 18.2083 107.711 17.4455 106.315 15.9199C104.92 14.3944 104.222 12.2359 104.222 9.44442C104.222 6.6692 104.92 4.5188 106.315 2.99324C107.711 1.45145 109.707 0.680556 112.304 0.680556C114.885 0.680556 116.873 1.45145 118.268 2.99324C119.664 4.5188 120.362 6.6692 120.362 9.44442C120.362 12.2359 119.664 14.3944 118.268 15.9199C116.873 17.4455 114.885 18.2083 112.304 18.2083ZM112.28 17.3319C114.341 17.3319 115.891 16.6259 116.929 15.214C117.984 13.802 118.512 11.8788 118.512 9.44442C118.512 7.01001 117.984 5.08683 116.929 3.67488C115.891 2.26292 114.341 1.55694 112.28 1.55694C110.251 1.55694 108.709 2.26292 107.654 3.67488C106.6 5.08683 106.072 7.01001 106.072 9.44442C106.072 11.8788 106.6 13.802 107.654 15.214C108.709 16.6259 110.251 17.3319 112.28 17.3319Z" fill="white"/>
</svg>
