<svg width="22" height="24" viewBox="0 0 22 24" fill="none" xmlns="http://www.w3.org/2000/svg">
<path d="M11.0007 5C9.09955 5 8.86097 5.00831 8.11429 5.04229C7.36908 5.07642 6.8604 5.1944 6.41532 5.3675C5.95492 5.54629 5.56437 5.78546 5.17528 6.17469C4.7859 6.56377 4.54673 6.95431 4.36736 7.41456C4.19381 7.85979 4.07569 8.3686 4.04215 9.11352C4.00875 9.86019 4 10.0989 4 12C4 13.9011 4.00846 14.1389 4.04229 14.8856C4.07656 15.6308 4.19454 16.1395 4.3675 16.5846C4.54644 17.045 4.78561 17.4355 5.17485 17.8246C5.56379 18.214 5.95433 18.4537 6.41444 18.6325C6.85982 18.8056 7.36864 18.9236 8.11371 18.9577C8.86038 18.9917 9.09882 19 10.9998 19C12.901 19 13.1389 18.9917 13.8856 18.9577C14.6308 18.9236 15.14 18.8056 15.5854 18.6325C16.0457 18.4537 16.4356 18.214 16.8246 17.8246C17.214 17.4355 17.4531 17.045 17.6325 16.5847C17.8046 16.1395 17.9227 15.6307 17.9577 14.8857C17.9912 14.1391 18 13.9011 18 12C18 10.0989 17.9912 9.86033 17.9577 9.11367C17.9227 8.36846 17.8046 7.85979 17.6325 7.41471C17.4531 6.95431 17.214 6.56377 16.8246 6.17469C16.4352 5.78531 16.0458 5.54615 15.585 5.3675C15.1387 5.1944 14.6298 5.07642 13.8845 5.04229C13.1379 5.00831 12.9002 5 10.9985 5H11.0007ZM10.3727 6.26146C10.5591 6.26117 10.767 6.26146 11.0007 6.26146C12.8697 6.26146 13.0912 6.26817 13.8293 6.30171C14.5118 6.33292 14.8822 6.44696 15.1289 6.54277C15.4556 6.66965 15.6885 6.82131 15.9334 7.06631C16.1784 7.31131 16.33 7.54465 16.4572 7.87131C16.553 8.11777 16.6672 8.48819 16.6983 9.17069C16.7318 9.9086 16.7391 10.1303 16.7391 11.9984C16.7391 13.8665 16.7318 14.0882 16.6983 14.8261C16.6671 15.5086 16.553 15.879 16.4572 16.1255C16.3303 16.4521 16.1784 16.6847 15.9334 16.9296C15.6884 17.1746 15.4558 17.3263 15.1289 17.4531C14.8825 17.5494 14.5118 17.6631 13.8293 17.6944C13.0913 17.7279 12.8697 17.7352 11.0007 17.7352C9.13149 17.7352 8.90997 17.7279 8.17204 17.6944C7.48954 17.6629 7.11912 17.5488 6.87222 17.453C6.54555 17.3261 6.31221 17.1745 6.06721 16.9295C5.82221 16.6845 5.67054 16.4517 5.54337 16.1249C5.44756 15.8784 5.33337 15.508 5.30231 14.8255C5.26876 14.0876 5.26205 13.8659 5.26205 11.9966C5.26205 10.1274 5.26876 9.90685 5.30231 9.16894C5.33351 8.48644 5.44756 8.11602 5.54337 7.86927C5.67025 7.5426 5.82221 7.30927 6.06721 7.06427C6.31221 6.81927 6.54555 6.6676 6.87222 6.54044C7.11897 6.44419 7.48954 6.33044 8.17204 6.29908C8.8178 6.26992 9.06805 6.26117 10.3727 6.25971V6.26146ZM14.7372 7.42375C14.2735 7.42375 13.8972 7.79956 13.8972 8.26346C13.8972 8.72721 14.2735 9.10346 14.7372 9.10346C15.201 9.10346 15.5772 8.72721 15.5772 8.26346C15.5772 7.79971 15.201 7.42346 14.7372 7.42346V7.42375ZM11.0007 8.40521C9.01541 8.40521 7.40583 10.0148 7.40583 12C7.40583 13.9852 9.01541 15.5941 11.0007 15.5941C12.9859 15.5941 14.5949 13.9852 14.5949 12C14.5949 10.0148 12.9858 8.40521 11.0005 8.40521H11.0007ZM11.0007 9.66667C12.2893 9.66667 13.334 10.7113 13.334 12C13.334 13.2886 12.2893 14.3333 11.0007 14.3333C9.71191 14.3333 8.6673 13.2886 8.6673 12C8.6673 10.7113 9.71191 9.66667 11.0007 9.66667Z" fill="#4B3D32"/>
</svg>
