<svg width="20" height="21" viewBox="0 0 20 21" fill="none" xmlns="http://www.w3.org/2000/svg">
<g clip-path="url(#clip0_101_605)">
<path d="M8.83042 3.70881C9.97258 3.65925 11.1038 3.94955 12.0809 4.543C13.0581 5.13644 13.8372 6.00637 14.3199 7.04273C14.8025 8.07909 14.967 9.23532 14.7924 10.3651C14.6178 11.495 14.112 12.5476 13.339 13.39C12.5661 14.2323 11.5606 14.8264 10.4499 15.0972C9.33925 15.368 8.17318 15.3033 7.09926 14.9113C6.02534 14.5193 5.09182 13.8176 4.41679 12.8949C3.74176 11.9722 3.35556 10.8701 3.30703 9.72785C3.24903 8.19925 3.79667 6.70953 4.83093 5.58246C5.86519 4.45539 7.30248 3.78206 8.83042 3.70881ZM8.7845 2.62785C7.42872 2.68544 6.12047 3.14378 5.02518 3.9449C3.92989 4.74602 3.09676 5.85394 2.63115 7.12856C2.16553 8.40318 2.08833 9.78724 2.40932 11.1057C2.73031 12.4242 3.43507 13.6179 4.43448 14.5359C5.43388 15.4538 6.68305 16.0548 8.02401 16.2628C9.36498 16.4708 10.7375 16.2765 11.968 15.7045C13.1986 15.1324 14.2318 14.2083 14.9372 13.049C15.6425 11.8897 15.9882 10.5473 15.9306 9.19155C15.8534 7.37351 15.0571 5.66062 13.717 4.42968C12.3768 3.19875 10.6025 2.55061 8.7845 2.62785Z" fill="#4B3D32" stroke="#4B3D32" stroke-width="0.2"/>
<path d="M15.2542 14.4341L19.1124 18.0009C19.3266 18.1989 19.3397 18.5331 19.1416 18.7472C18.9436 18.9613 18.6096 18.9743 18.3955 18.7764L14.537 15.2094L15.2542 14.4341Z" fill="#4B3D32" stroke="#4B3D32" stroke-width="0.2"/>
</g>
<defs>
<clipPath id="clip0_101_605">
<rect width="19" height="19" fill="white" transform="translate(0.105347 1.41174) rotate(-2.43267)"/>
</clipPath>
</defs>
</svg>
