<svg width="31" height="34" viewBox="0 0 31 34" fill="none" xmlns="http://www.w3.org/2000/svg">
<rect width="31" height="34" fill="white"/>
<path d="M15.5013 7.08325C12.8224 7.08325 12.4863 7.09503 11.4341 7.14317C10.384 7.19151 9.66729 7.35865 9.04012 7.60388C8.39137 7.85717 7.84106 8.19598 7.2928 8.74739C6.74413 9.29859 6.40712 9.85186 6.15436 10.5039C5.90982 11.1346 5.74337 11.8554 5.69611 12.9107C5.64905 13.9685 5.63672 14.3067 5.63672 16.9999C5.63672 19.6931 5.64864 20.0301 5.69631 21.0879C5.7446 22.1436 5.91085 22.8642 6.15457 23.4947C6.40671 24.1469 6.74372 24.7002 7.29218 25.2514C7.84024 25.803 8.39055 26.1427 9.03889 26.396C9.66647 26.6412 10.3834 26.8083 11.4333 26.8567C12.4854 26.9048 12.8214 26.9166 15.5 26.9166C18.1791 26.9166 18.5142 26.9048 19.5664 26.8567C20.6165 26.8083 21.334 26.6412 21.9616 26.396C22.6102 26.1427 23.1597 25.803 23.7077 25.2514C24.2564 24.7002 24.5934 24.1469 24.8461 23.4949C25.0886 22.8642 25.2551 22.1434 25.3044 21.0881C25.3517 20.0303 25.364 19.6931 25.364 16.9999C25.364 14.3067 25.3517 13.9687 25.3044 12.911C25.2551 11.8552 25.0886 11.1346 24.8461 10.5041C24.5934 9.85186 24.2564 9.29859 23.7077 8.74739C23.159 8.19578 22.6104 7.85696 21.961 7.60388C21.3322 7.35865 20.615 7.19151 19.5649 7.14317C18.5128 7.09503 18.1778 7.08325 15.4982 7.08325H15.5013ZM14.6164 8.87032C14.879 8.8699 15.1721 8.87032 15.5013 8.87032C18.1349 8.87032 18.447 8.87982 19.4871 8.92734C20.4488 8.97155 20.9707 9.13311 21.3184 9.26884C21.7787 9.44858 22.1069 9.66344 22.4519 10.0105C22.7972 10.3576 23.0109 10.6882 23.1901 11.151C23.3251 11.5001 23.486 12.0249 23.5297 12.9917C23.577 14.0371 23.5873 14.3511 23.5873 16.9976C23.5873 19.6442 23.577 19.9582 23.5297 21.0036C23.4858 21.9704 23.3251 22.4952 23.1901 22.8444C23.0113 23.3071 22.7972 23.6367 22.4519 23.9835C22.1067 24.3306 21.7789 24.5455 21.3184 24.7252C20.9711 24.8616 20.4488 25.0227 19.4871 25.0669C18.4472 25.1144 18.1349 25.1248 15.5013 25.1248C12.8675 25.1248 12.5553 25.1144 11.5155 25.0669C10.5538 25.0223 10.0318 24.8607 9.68393 24.725C9.22363 24.5453 8.89483 24.3304 8.5496 23.9833C8.20437 23.6362 7.99066 23.3065 7.81147 22.8435C7.67646 22.4944 7.51556 21.9696 7.47179 21.0027C7.42452 19.9574 7.41507 19.6433 7.41507 16.9952C7.41507 14.347 7.42452 14.0346 7.47179 12.9893C7.51576 12.0224 7.67646 11.4976 7.81147 11.1481C7.99025 10.6853 8.20437 10.3547 8.5496 10.0076C8.89483 9.66055 9.22363 9.44569 9.68393 9.26554C10.0316 9.12918 10.5538 8.96804 11.5155 8.92362C12.4254 8.8823 12.7781 8.86991 14.6164 8.86784V8.87032ZM20.7665 10.5169C20.113 10.5169 19.5828 11.0493 19.5828 11.7065C19.5828 12.3635 20.113 12.8965 20.7665 12.8965C21.4199 12.8965 21.9501 12.3635 21.9501 11.7065C21.9501 11.0495 21.4199 10.5169 20.7665 10.5169ZM15.5013 11.9073C12.7039 11.9073 10.4358 14.1875 10.4358 16.9999C10.4358 19.8123 12.7039 22.0915 15.5013 22.0915C18.2987 22.0915 20.5659 19.8123 20.5659 16.9999C20.5659 14.1875 18.2987 11.9073 15.5013 11.9073ZM15.5013 13.6944C17.317 13.6944 18.7892 15.1742 18.7892 16.9999C18.7892 18.8254 17.317 20.3055 15.5013 20.3055C13.6853 20.3055 12.2134 18.8254 12.2134 16.9999C12.2134 15.1742 13.6853 13.6944 15.5013 13.6944Z" fill="#4B3D32" stroke="white" stroke-width="0.8"/>
</svg>
